<svg width="19" height="22" viewBox="0 0 19 22" fill="none" xmlns="http://www.w3.org/2000/svg">
<path fill-rule="evenodd" clip-rule="evenodd" d="M9.80664 3.88333e-07C11.6442 -1.96097e-05 13.1 0.000157326 14.2393 0.153321C15.4115 0.310956 16.3601 0.6433 17.1084 1.3916C17.8567 2.13991 18.1891 3.08845 18.3467 4.26074C18.4999 5.39991 18.5 6.8557 18.5 8.69336V12.8066C18.5 14.6442 18.4999 16.1001 18.3467 17.2393C18.1891 18.4115 17.8567 19.3601 17.1084 20.1084C16.3601 20.8566 15.4115 21.189 14.2393 21.3467C13.1 21.4998 11.6442 21.5 9.80664 21.5H8.69336C6.85576 21.5 5.39991 21.4998 4.26074 21.3467C3.08845 21.189 2.13992 20.8567 1.3916 20.1084C0.643302 19.3602 0.310956 18.4115 0.153321 17.2393C0.000167683 16.1001 -2.92781e-05 14.6442 7.20323e-07 12.8066V8.69336C7.2043e-07 6.85568 0.000155225 5.39991 0.153321 4.26074C0.310969 3.08845 0.643322 2.1399 1.3916 1.3916C2.13989 0.643312 3.08847 0.310969 4.26074 0.153321C5.39989 0.000167415 6.85574 -1.96096e-05 8.69336 3.88333e-07H9.80664ZM5.25 14.75C4.69772 14.75 4.25 15.1977 4.25 15.75C4.25 16.3023 4.69771 16.75 5.25 16.75H9.25C9.8023 16.75 10.25 16.3023 10.25 15.75C10.25 15.1977 9.8023 14.75 9.25 14.75H5.25ZM5.25 9.75C4.69772 9.75 4.25 10.1977 4.25 10.75C4.25 11.3023 4.69772 11.75 5.25 11.75H13.25C13.8023 11.75 14.25 11.3023 14.25 10.75C14.25 10.1977 13.8023 9.75 13.25 9.75H5.25ZM5.25 4.75C4.69772 4.75 4.25 5.19772 4.25 5.75C4.25 6.30228 4.69772 6.75 5.25 6.75H13.25C13.8023 6.75 14.25 6.30228 14.25 5.75C14.25 5.19772 13.8023 4.75 13.25 4.75H5.25Z" fill="black"/>
</svg>
