<svg width="22" height="20" viewBox="0 0 22 20" fill="none" xmlns="http://www.w3.org/2000/svg">
<path fill-rule="evenodd" clip-rule="evenodd" d="M4.99994 10C4.99994 9.30962 5.55958 8.75002 6.24994 8.75002H6.25891C6.94927 8.75002 7.50891 9.30962 7.50891 10C7.50891 10.6904 6.94927 11.25 6.25891 11.25H6.24994C5.55958 11.25 4.99994 10.6904 4.99994 10ZM9.7455 10C9.7455 9.30962 10.3051 8.75002 10.9955 8.75002H11.0044C11.6948 8.75002 12.2544 9.30962 12.2544 10C12.2544 10.6904 11.6948 11.25 11.0044 11.25H10.9955C10.3051 11.25 9.7455 10.6904 9.7455 10ZM14.491 10C14.491 9.30962 15.0506 8.75002 15.741 8.75002H15.7499C16.4403 8.75002 16.9999 9.30962 16.9999 10C16.9999 10.6904 16.4403 11.25 15.7499 11.25H15.741C15.0506 11.25 14.491 10.6904 14.491 10Z" fill="black"/>
<path fill-rule="evenodd" clip-rule="evenodd" d="M16 1C16 0.44772 16.4477 0 17 0C18.913 0 20.231 1.73702 20.231 3.57143C20.231 3.7037 20.2308 3.83139 20.2305 3.95493C20.2286 4.92941 20.2271 5.64598 20.3561 6.31957C20.4902 7.02032 20.7711 7.67768 21.4286 8.43552C22.1905 9.31362 22.1905 10.6864 21.4286 11.5645C20.7711 12.3223 20.4902 12.9797 20.3561 13.6804C20.2271 14.354 20.2286 15.0706 20.2305 16.045C20.2308 16.1686 20.231 16.2963 20.231 16.4286C20.231 18.263 18.913 20 17 20C16.4477 20 16 19.5523 16 19C16 18.4477 16.4477 18 17 18C17.5513 18 18.231 17.4345 18.231 16.4286C18.231 16.3009 18.2306 16.1735 18.2302 16.0463C18.2271 15.1055 18.224 14.1805 18.3917 13.3044C18.5932 12.2517 19.0334 11.2733 19.9179 10.2538C20.0274 10.1277 20.0274 9.87232 19.9179 9.74622C19.0334 8.72672 18.5932 7.74823 18.3917 6.69554C18.224 5.81947 18.2271 4.89448 18.2302 3.95367C18.2306 3.82652 18.231 3.69908 18.231 3.57143C18.231 2.56552 17.5513 2 17 2C16.4477 2 16 1.55229 16 1Z" fill="black"/>
<path fill-rule="evenodd" clip-rule="evenodd" d="M6 1C6 0.44772 5.55228 0 5 0C3.08695 0 1.76897 1.73702 1.76897 3.57143C1.76897 3.63284 1.76899 3.69342 1.76902 3.7532C1.76989 5.94318 1.77033 7.05366 0.57139 8.43552C-0.190466 9.31362 -0.190464 10.6864 0.5714 11.5645C1.22892 12.3223 1.50982 12.9797 1.64394 13.6804C1.77287 14.354 1.77143 15.0706 1.76947 16.045C1.76923 16.1686 1.76897 16.2963 1.76897 16.4286C1.76897 18.263 3.08695 20 5 20C5.55228 20 6 19.5523 6 19C6 18.4477 5.55228 18 5 18C4.44872 18 3.76897 17.4345 3.76897 16.4286C3.76897 16.3009 3.76939 16.1735 3.76981 16.0463C3.77291 15.1055 3.77596 14.1805 3.60829 13.3044C3.4068 12.2517 2.96658 11.2733 2.08206 10.2538C1.97265 10.1277 1.97265 9.87232 2.08206 9.74622C3.77803 7.79147 3.77405 5.98584 3.76945 3.90134C3.76921 3.79216 3.76897 3.68221 3.76897 3.57143C3.76897 2.56552 4.44872 2 5 2C5.55228 2 6 1.55229 6 1Z" fill="black"/>
</svg>
