<svg width="21" height="21" viewBox="0 0 21 21" fill="none" xmlns="http://www.w3.org/2000/svg">
<path d="M18.4533 12.897C19.3252 12.729 19.7611 12.645 19.9106 12.7963C19.9282 12.8141 19.9391 12.8272 19.9534 12.8477C20.0754 13.022 19.9474 13.3504 19.6914 14.0073C18.2107 17.8073 14.5157 20.5 10.1917 20.5C4.563 20.5 0 15.937 0 10.3082C0 5.98431 2.69269 2.28928 6.49269 0.808529C7.14947 0.55261 7.47786 0.42465 7.65211 0.54656C7.67264 0.56092 7.68574 0.571849 7.70357 0.589449C7.85489 0.738879 7.77088 1.1748 7.60287 2.04663C7.45681 2.80454 7.45711 3.69239 7.45739 4.49922C7.45757 5.02036 7.45752 5.5415 7.45747 6.06264C7.45744 6.31101 7.45742 6.55938 7.45742 6.80775L7.45741 6.88425C7.4573 7.73139 7.45719 8.5742 7.5515 9.2756C7.65887 10.0743 7.92386 11.0124 8.7057 11.7942C9.4875 12.576 10.4256 12.841 11.2243 12.9484C11.9254 13.0427 12.7677 13.0426 13.6143 13.0425C13.6403 13.0425 13.6662 13.0425 13.6921 13.0425H15.9103C15.9403 13.0425 15.9703 13.0425 16.0005 13.0425C16.8074 13.0428 17.6953 13.0431 18.4533 12.897Z" fill="black"/>
<path d="M13.933 0.650719L13.8684 0.62394C13.2431 0.36478 12.6612 0.1236 12.1218 0.0368096C11.4932 -0.0643404 10.9191 0.0379095 10.3221 0.40656C10.2737 0.43644 10.2021 0.48426 10.156 0.51753C9.5453 0.95804 9.2522 1.53368 9.1189 2.22508C8.9996 2.84427 8.9997 3.61328 8.9998 4.49867V6.72956C8.9997 7.64501 8.9997 8.407 9.081 9.0117C9.1667 9.6493 9.3551 10.2231 9.8158 10.6839C10.2766 11.1446 10.8503 11.333 11.488 11.4187C12.0926 11.5 12.8546 11.5 13.7701 11.4999H16.001C16.8864 11.5 17.6554 11.5001 18.2746 11.3808C18.966 11.2475 19.5416 10.9544 19.9822 10.3437C20.0154 10.2976 20.0633 10.226 20.0931 10.1776C20.4618 9.5806 20.564 9.0065 20.4629 8.3779C20.3761 7.83851 20.1349 7.2566 19.8758 6.63133L19.849 6.5667C19.2996 5.24045 18.4944 4.0354 17.4794 3.02033C16.4643 2.00527 15.2592 1.20007 13.933 0.650719Z" fill="black"/>
</svg>
