<svg width="16" height="16" viewBox="0 0 16 16" fill="none" xmlns="http://www.w3.org/2000/svg">
<path d="M7.96319 0C6.38822 0 4.84862 0.469192 3.53908 1.34824C2.22954 2.22729 1.20888 3.47672 0.606165 4.93853C0.00345032 6.40034 -0.154247 8.00887 0.153014 9.56072C0.460275 11.1126 1.21869 12.538 2.33237 13.6569C3.44604 14.7757 4.86494 15.5376 6.40965 15.8463C7.95435 16.155 9.55548 15.9965 11.0106 15.391C12.4656 14.7855 13.7093 13.7602 14.5843 12.4446C15.4593 11.129 15.9264 9.58225 15.9264 8C15.9223 5.87952 15.082 3.84705 13.5895 2.34764C12.097 0.848226 10.0739 0.00406613 7.96319 0ZM4.28787 8.92307C4.10614 8.92307 3.9285 8.86894 3.7774 8.76751C3.6263 8.66608 3.50853 8.52191 3.43898 8.35324C3.36944 8.18457 3.35124 7.99897 3.3867 7.81991C3.42215 7.64085 3.50966 7.47638 3.63816 7.34728C3.76666 7.21819 3.93038 7.13027 4.10862 7.09466C4.28685 7.05904 4.4716 7.07732 4.63949 7.14719C4.80739 7.21705 4.95089 7.33537 5.05185 7.48716C5.15281 7.63896 5.2067 7.81743 5.2067 8C5.2067 8.24481 5.1099 8.4796 4.93758 8.65271C4.76527 8.82582 4.53156 8.92307 4.28787 8.92307ZM7.96319 8.92307C7.78146 8.92307 7.60381 8.86894 7.45271 8.76751C7.30161 8.66608 7.18384 8.52191 7.1143 8.35324C7.04475 8.18457 7.02656 7.99897 7.06201 7.81991C7.09747 7.64085 7.18498 7.47638 7.31348 7.34728C7.44198 7.21819 7.6057 7.13027 7.78393 7.09466C7.96217 7.05904 8.14691 7.07732 8.31481 7.14719C8.4827 7.21705 8.6262 7.33537 8.72716 7.48716C8.82813 7.63896 8.88202 7.81743 8.88202 8C8.88202 8.24481 8.78521 8.4796 8.6129 8.65271C8.44058 8.82582 8.20687 8.92307 7.96319 8.92307ZM11.6385 8.92307C11.4568 8.92307 11.2791 8.86894 11.128 8.76751C10.9769 8.66608 10.8592 8.52191 10.7896 8.35324C10.7201 8.18457 10.7019 7.99897 10.7373 7.81991C10.7728 7.64085 10.8603 7.47638 10.9888 7.34728C11.1173 7.21819 11.281 7.13027 11.4592 7.09466C11.6375 7.05904 11.8222 7.07732 11.9901 7.14719C12.158 7.21705 12.3015 7.33537 12.4025 7.48716C12.5034 7.63896 12.5573 7.81743 12.5573 8C12.5573 8.24481 12.4605 8.4796 12.2882 8.65271C12.1159 8.82582 11.8822 8.92307 11.6385 8.92307Z" fill="#086CD9"/>
</svg>
