<svg width="10" height="10" viewBox="0 0 10 10" fill="none" xmlns="http://www.w3.org/2000/svg">
<path d="M8.93306 0.441806C8.79113 0.300478 8.6226 0.188672 8.43722 0.112846C8.25183 0.0370209 8.05326 -0.00132119 7.85297 3.47465e-05C7.65268 0.00139069 7.45465 0.0424178 7.2703 0.120746C7.08596 0.199075 6.91896 0.313152 6.77896 0.456389L1.12466 6.11078C0.871201 6.36424 0.690519 6.68115 0.601516 7.02837L0.167819 8.72031C0.0923113 9.01488 0.360111 9.28264 0.654669 9.20709L2.34674 8.7731C2.69386 8.68407 3.01068 8.50341 3.26408 8.25001L8.91848 2.59552C9.06175 2.45558 9.17586 2.28863 9.25421 2.10431C9.33257 1.92 9.37361 1.72198 9.37496 1.52171C9.37632 1.32143 9.33796 1.12288 9.26211 0.937518C9.18626 0.752159 9.07442 0.583675 8.93306 0.441806Z" fill="#081028"/>
</svg>
