<svg width="22" height="22" viewBox="0 0 22 22" fill="none" xmlns="http://www.w3.org/2000/svg">
<path d="M8.25 7.25C8.25 8.35457 7.35457 9.25 6.25 9.25C5.14543 9.25 4.25 8.35457 4.25 7.25C4.25 6.14543 5.14543 5.25 6.25 5.25C7.35457 5.25 8.25 6.14543 8.25 7.25Z" fill="black"/>
<path d="M17.25 0C17.5638 0 17.8445 0.1954 17.9534 0.48972L18.2113 1.18675C18.5733 2.1651 18.6888 2.43091 18.8789 2.62106C19.0691 2.81121 19.3349 2.92667 20.3133 3.28869L21.0103 3.54661C21.3046 3.65552 21.5 3.93617 21.5 4.25C21.5 4.56383 21.3046 4.84448 21.0103 4.95339L20.3133 5.21131C19.3349 5.57333 19.0691 5.68879 18.8789 5.87894C18.6888 6.06909 18.5733 6.3349 18.2113 7.31325L17.9534 8.01028C17.8445 8.3046 17.5638 8.5 17.25 8.5C16.9362 8.5 16.6555 8.3046 16.5466 8.01028L16.2887 7.31325C15.9267 6.3349 15.8112 6.06909 15.6211 5.87894C15.4309 5.68879 15.1651 5.57333 14.1867 5.21131L13.4897 4.95339C13.1954 4.84448 13 4.56383 13 4.25C13 3.93617 13.1954 3.65552 13.4897 3.54661L14.1867 3.28869C15.1651 2.92667 15.4309 2.81121 15.6211 2.62106C15.8112 2.43091 15.9267 2.1651 16.2887 1.18675L16.5466 0.48972C16.6555 0.1954 16.9362 0 17.25 0Z" fill="black"/>
<path fill-rule="evenodd" clip-rule="evenodd" d="M10.2515 1H10.1773C8.05315 0.99998 6.35973 0.99996 5.03198 1.17847C3.66104 1.36279 2.53471 1.75337 1.64404 2.64404C0.753371 3.53471 0.36279 4.66104 0.17847 6.03198C-3.95626e-05 7.35973 -1.95766e-05 9.0531 4.23365e-07 11.1773V11.3227C-1.95766e-05 13.4469 -3.95626e-05 15.1403 0.17847 16.468C0.36279 17.839 0.753371 18.9653 1.64404 19.856C2.53471 20.7466 3.66104 21.1372 5.03198 21.3215C6.35974 21.5 8.05317 21.5 10.1774 21.5H10.3227C12.4468 21.5 14.1403 21.5 15.468 21.3215C16.839 21.1372 17.9653 20.7466 18.856 19.856C19.7466 18.9653 20.1372 17.839 20.3215 16.468C20.5 15.1403 20.5 13.4468 20.5 11.3227V11.2487C20.5 10.7317 20.5 10.2423 20.4977 9.7809C20.4951 9.2418 20.0559 8.8069 19.5167 8.8095C18.9776 8.8122 18.5427 9.2514 18.5454 9.7905C18.5476 10.2466 18.5476 10.7314 18.5476 11.25C18.5476 11.549 18.5476 11.8361 18.5471 12.112C12.4551 9.1412 8.0609 14.4305 4.16613 19.1454C3.66695 18.9827 3.31206 18.7629 3.02458 18.4754C2.55713 18.008 2.26865 17.3623 2.11344 16.2079C1.95446 15.0253 1.95238 13.4635 1.95238 11.25C1.95238 9.0365 1.95446 7.47466 2.11344 6.29213C2.26865 5.13769 2.55713 4.49203 3.02458 4.02458C3.49203 3.55713 4.13769 3.26865 5.29213 3.11344C6.47466 2.95446 8.03655 2.95238 10.25 2.95238C10.7686 2.95238 11.2534 2.95238 11.7095 2.95463C12.2486 2.95729 12.6878 2.52239 12.6905 1.98326C12.6931 1.44413 12.2582 1.00493 11.7191 1.00227C11.2578 1 10.7684 1 10.2515 1Z" fill="black"/>
</svg>
