<svg width="22" height="22" viewBox="0 0 22 22" fill="none" xmlns="http://www.w3.org/2000/svg">
<path fill-rule="evenodd" clip-rule="evenodd" d="M15.75 2.97064e-07C12.5744 2.97064e-07 10 2.57436 10 5.75C10 8.9256 12.5744 11.5 15.75 11.5C18.9256 11.5 21.5 8.9256 21.5 5.75C21.5 2.57436 18.9256 2.97064e-07 15.75 2.97064e-07ZM18.0004 4.95717C18.3908 4.81889 18.5953 4.39027 18.457 3.99982C18.3187 3.60937 17.8901 3.40495 17.4996 3.54323C17.0175 3.71399 16.5699 4.03384 16.1911 4.36601C15.8046 4.705 15.4463 5.09574 15.1447 5.45726C14.9985 5.63246 14.8635 5.80341 14.7428 5.96192C14.6546 5.87935 14.5662 5.80964 14.4785 5.75117L14.4733 5.74771C14.315 5.64209 14.1022 5.5002 13.75 5.5002C13.3358 5.5002 13 5.83599 13 6.2502C13 6.62492 13.2748 6.93546 13.6339 6.99127C13.6896 7.0284 13.8737 7.17459 14.0792 7.58561C14.2001 7.82738 14.4417 7.9854 14.7116 7.99922C14.9815 8.01304 15.2382 7.88018 15.3832 7.65213C15.546 7.42148 16.026 6.7424 16.2965 6.41815C16.5684 6.09217 16.8719 5.76416 17.1802 5.49377C17.4963 5.21657 17.7766 5.03642 18.0004 4.95717Z" fill="black"/>
<path fill-rule="evenodd" clip-rule="evenodd" d="M11.332 0.00097674C9.6098 1.32648 8.5 3.40868 8.5 5.75C8.5 9.7541 11.7459 13 15.75 13C17.1225 13 18.4059 12.6186 19.5 11.9561V12.8096C19.5 14.6447 19.5004 16.1031 19.3379 17.2451C19.1698 18.4255 18.8146 19.3778 18.0244 20.124C17.2404 20.8643 16.2502 21.1916 15.0215 21.3477C13.8209 21.5001 12.2838 21.5 10.333 21.5H9.16699C7.21615 21.5 5.67908 21.5001 4.47852 21.3477C3.24979 21.1916 2.25962 20.8643 1.47559 20.124C0.685462 19.3778 0.330174 18.4255 0.16211 17.2451C-0.000462025 16.1031 -1.93573e-05 14.6447 6.40314e-07 12.8096V8.69043C-1.93575e-05 6.85529 -0.000462607 5.39691 0.16211 4.25488C0.330175 3.07447 0.685464 2.1222 1.47559 1.37598C2.25962 0.635615 3.24979 0.308397 4.47852 0.152344C5.67908 -9.60678e-05 7.21613 -9.82215e-06 9.16699 1.77854e-07H10.333C10.6788 1.77854e-07 11.0118 0.000137709 11.332 0.00097674ZM4.75 14.75C4.19772 14.75 3.75 15.1977 3.75 15.75C3.75 16.3023 4.19772 16.75 4.75 16.75H12.75C13.3023 16.75 13.75 16.3023 13.75 15.75C13.75 15.1977 13.3023 14.75 12.75 14.75H4.75ZM4.75 10.75C4.19772 10.75 3.75 11.1977 3.75 11.75C3.75 12.3023 4.19772 12.75 4.75 12.75H7.8584C8.41062 12.7499 8.8584 12.3023 8.8584 11.75C8.8584 11.1977 8.41062 10.7501 7.8584 10.75H4.75Z" fill="black"/>
</svg>
