<svg width="18" height="19" viewBox="0 0 18 19" fill="none" xmlns="http://www.w3.org/2000/svg">
<path fill-rule="evenodd" clip-rule="evenodd" d="M0 8.77777C0 4.48224 3.48223 1 7.77778 1C8.31468 1 8.74998 1.43528 8.74998 1.97223C8.74998 2.50917 8.31468 2.94445 7.77778 2.94445C4.55611 2.94445 1.94444 5.55613 1.94444 8.77777C1.94444 11.9995 4.55611 14.6112 7.77778 14.6112C10.9995 14.6112 13.6111 11.9995 13.6111 8.77777C13.6111 8.24087 14.0464 7.80557 14.5833 7.80557C15.1203 7.80557 15.5556 8.24087 15.5556 8.77777C15.5556 10.5752 14.9459 12.2301 13.9221 13.5472L17.2153 16.8403C17.5949 17.22 17.5949 17.8356 17.2153 18.2153C16.8356 18.595 16.22 18.595 15.8403 18.2153L12.5472 14.9221C11.2301 15.946 9.57518 16.5556 7.77778 16.5556C3.48223 16.5556 0 13.0734 0 8.77777Z" fill="black"/>
<path d="M12.2502 0C12.564 0 12.8447 0.1954 12.9536 0.48972L13.2115 1.18675C13.5735 2.1651 13.689 2.43091 13.8791 2.62106C14.0693 2.81121 14.3351 2.92667 15.3135 3.28869L16.0105 3.54661C16.3048 3.65552 16.5002 3.93617 16.5002 4.25C16.5002 4.56383 16.3048 4.84448 16.0105 4.95339L15.3135 5.21131C14.3351 5.57333 14.0693 5.68879 13.8791 5.87894C13.689 6.06909 13.5735 6.3349 13.2115 7.31327L12.9536 8.01027C12.8447 8.30457 12.564 8.49997 12.2502 8.49997C11.9364 8.49997 11.6557 8.30457 11.5468 8.01027L11.2889 7.31327C10.9269 6.3349 10.8114 6.06909 10.6213 5.87894C10.4311 5.68879 10.1653 5.57333 9.18688 5.21131L8.48988 4.95339C8.19558 4.84448 8.00018 4.56383 8.00018 4.25C8.00018 3.93617 8.19558 3.65552 8.48988 3.54661L9.18688 3.28869C10.1653 2.92667 10.4311 2.81121 10.6213 2.62106C10.8114 2.43091 10.9269 2.1651 11.2889 1.18675L11.5468 0.48972C11.6557 0.1954 11.9364 0 12.2502 0Z" fill="black"/>
</svg>
