<svg width="20" height="20" viewBox="0 0 20 20" fill="none" xmlns="http://www.w3.org/2000/svg">
<path d="M17.9979 2.11897C17.6084 1.69948 16.9977 1.54236 16.4142 1.48611C15.8011 1.42702 15.0668 1.46632 14.2762 1.57001C12.6908 1.77797 10.7753 2.25935 8.93533 2.85163C7.09417 3.44429 5.29945 4.15737 3.95538 4.84055C3.28646 5.18056 2.70628 5.5246 2.28451 5.85505C2.07449 6.01959 1.88285 6.19683 1.73869 6.38547C1.60119 6.56541 1.45653 6.82141 1.45852 7.13001C1.46374 7.94008 2.01541 8.51258 2.60289 8.89683C3.20253 9.28908 3.98348 9.58466 4.75984 9.81616C5.54453 10.0502 6.36972 10.2315 7.07911 10.3785C7.1256 10.3881 7.21852 10.4073 7.33239 10.4308C7.76119 10.5194 7.97559 10.5637 8.17714 10.5034C8.37867 10.4431 8.53367 10.2882 8.8435 9.97825L11.9109 6.9109C12.2363 6.58547 12.764 6.58547 13.0894 6.9109C13.4148 7.23635 13.4148 7.76399 13.0894 8.08942L10.2289 10.9499C9.913 11.2658 9.75508 11.4237 9.69533 11.6287C9.6355 11.8337 9.68375 12.0513 9.78017 12.4866C10.1538 14.1738 10.4783 15.5681 10.8021 16.5061C10.9912 17.0539 11.2039 17.5282 11.4733 17.8779C11.7545 18.2429 12.137 18.5187 12.6404 18.5409C12.9538 18.5547 13.2144 18.4117 13.3931 18.2788C13.5814 18.139 13.7585 17.9513 13.9227 17.7462C14.2527 17.3339 14.5995 16.7634 14.9445 16.1041C15.6378 14.7791 16.372 13.0025 16.9933 11.1748C17.6142 9.34791 18.1316 7.44233 18.3808 5.85858C18.5052 5.06875 18.5667 4.33522 18.5325 3.72081C18.5001 3.13813 18.3759 2.52605 17.9979 2.11897Z" fill="black"/>
</svg>
